# xmcd CD database file
#
# Track frame offsets:
#	150
#	20485
#	41749
#	65437
#	80998
#	104200
#	122562
#	142769
#	158519
#	178313
#	191889
#	211664
#	228714
#	248386
#	267566
#	285176
#	305243
#	331470
#
# Disc length: 4643 seconds
#
# Revision: 0
# Processed by: cddbd v1.5.2PL0 Copyright (c) Steve Scherf et al.
# Submitted via: CDex 1.51
#
DISCID=0c122112
DTITLE=Salsa Club - Salsa Club Havanna
DYEAR=2010
DGENRE=Salsa
TTITLE0=JON SECADA - Así
TTITLE1=COMBINACION LATINA - Diferente A Ti
TTITLE2=CALLE REAL - Mi Amigo José
TTITLE3=GLORIA ESTEFAN - No Me Dejes De Querer
TTITLE4=DE LA LUZ - Chan Chan
TTITLE5=CARLOS PONCE - Busco Una Mujer
TTITLE6=ORQUESTA ALEC MEDINA FEAT. GUILLERMO VALENCIA - Salsa
TTITLE7=DARIEL LOPEZ - La Vida Es Un Carnaval
TTITLE8=PASIÓN DE BUENA VISTA - Mi Tierra
TTITLE9=THE SONS OF CUBA - Chicki Chaka
TTITLE10=MAYITO RIVERA - Si Yo Fuera Dios
TTITLE11=SONEROS DE VERDAD - Pio Pio Pa
TTITLE12=SON BY FOUR - A Puro Dolor
TTITLE13=UNA MAS TRIO - Margarita Feat. Eduardo Flores
TTITLE14=LA-33 - La Fea
TTITLE15=ALEC MEDINA FEAT. ALBERTO GARCIA - Ese Atrevimiento
TTITLE16=CALLE REAL - Somos Familia
TTITLE17=CARLOS PUEBLA - Hasta Siempre Comanda
EXTD=YEAR: 2010
EXTT0=
EXTT1=
EXTT2=
EXTT3=
EXTT4=
EXTT5=
EXTT6=
EXTT7=
EXTT8=
EXTT9=
EXTT10=
EXTT11=
EXTT12=
EXTT13=
EXTT14=
EXTT15=
EXTT16=
EXTT17=
PLAYORDER=
